<?xml version="1.0" encoding="utf-8"?>
<!-- Generator: Adobe Illustrator 16.0.0, SVG Export Plug-In . SVG Version: 6.00 Build 0)  -->
<!DOCTYPE svg PUBLIC "-//W3C//DTD SVG 1.1//EN" "http://www.w3.org/Graphics/SVG/1.1/DTD/svg11.dtd">
<svg version="1.1" id="Laag_1" xmlns="http://www.w3.org/2000/svg" xmlns:xlink="http://www.w3.org/1999/xlink" x="0px" y="0px"
	 width="36.992px" height="36.992px" viewBox="-14.267 0 36.992 36.992" enable-background="new -14.267 0 36.992 36.992"
	 xml:space="preserve">
<path fill="#FFFFFF" d="M21.269,7.957l-3.424,3.421l-6.6-6.399l3.525-3.523c1.792-1.797,4.705-1.797,6.502,0
	C23.07,3.247,23.07,6.16,21.269,7.957z M15.841,13.385L1.694,27.495l-8.959,2.493l2.457-8.995L9.258,6.961L15.841,13.385z"/>
<path fill="#FFFFFF" d="M21.269,7.957l-3.424,3.421l-6.6-6.399l3.525-3.523c1.792-1.797,4.705-1.797,6.502,0
	C23.07,3.247,23.07,6.16,21.269,7.957z M15.841,13.385L1.694,27.495l-8.959,2.493l2.453-8.995L9.258,6.961L15.841,13.385z"/>
<path fill="#FFFFFF" d="M18.02,17.706v12.282c0,1.274-1.023,2.302-2.298,2.302H-7.265c-1.27,0-2.3-1.027-2.3-2.302V7
	c0-1.271,1.03-2.296,2.3-2.296h12.27l4.61-4.598h-16.88c-3.81,0-6.897,3.087-6.897,6.894v22.988c0,3.81,3.087,6.897,6.897,6.897
	h22.987c3.813,0,6.897-3.083,6.897-6.897V13.109L18.02,17.706z"/>
</svg>
